# xmcd
# Copyright (C) 1995-1998 Ti Kan
#
# Track frame offsets:
#       150
#       13017
#       29923
#       45987
#
# Disc length: 745 seconds
#
# Revision: 0
# Processed by: cddbd v1.5.2PL0 Copyright (c) Steve Scherf et al.
# Submitted via: CD-Import v1.0
#
DISCID=2b02e704
DTITLE=Funny Pigs - Démo "maison"
DYEAR=08
DGENRE=
TTITLE0=22nd Of May
TTITLE1=Scheiss Egal
TTITLE2=Love Is The Answer
TTITLE3=On Vous Tiendra Toujours Tête
EXTD=
EXTT0=
EXTT1=
EXTT2=
EXTT3=
PLAYORDER=
